<svg xmlns="http://www.w3.org/2000/svg" width="1200" height="300" viewBox="0 0 1200 300" role="img" aria-labelledby="title desc">
  <title id="title">500L</title>
  <desc id="desc">Building useful AI agents, systems and automation products.</desc>
  <defs>
    <linearGradient id="background" x1="0" y1="0" x2="1" y2="1">
      <stop offset="0" stop-color="#090d12"/>
      <stop offset="0.56" stop-color="#0c1219"/>
      <stop offset="1" stop-color="#111923"/>
    </linearGradient>
    <linearGradient id="accent" x1="0" y1="0" x2="1" y2="0">
      <stop offset="0" stop-color="#63e6be"/>
      <stop offset="0.55" stop-color="#5cc8ff"/>
      <stop offset="1" stop-color="#9d8cff"/>
    </linearGradient>
    <radialGradient id="glow" cx="50%" cy="50%" r="50%">
      <stop offset="0" stop-color="#5cc8ff" stop-opacity=".22"/>
      <stop offset="1" stop-color="#5cc8ff" stop-opacity="0"/>
    </radialGradient>
    <pattern id="grid" width="30" height="30" patternUnits="userSpaceOnUse">
      <path d="M30 0H0V30" fill="none" stroke="#8da2b8" stroke-opacity=".07" stroke-width="1"/>
    </pattern>
    <filter id="blur">
      <feGaussianBlur stdDeviation="18"/>
    </filter>
  </defs>

  <rect x="1" y="1" width="1198" height="298" rx="24" fill="url(#background)" stroke="#263342" stroke-width="2"/>
  <rect x="1" y="1" width="1198" height="298" rx="24" fill="url(#grid)"/>
  <ellipse cx="965" cy="146" rx="250" ry="210" fill="url(#glow)" filter="url(#blur)"/>

  <g fill="none" stroke-linecap="round">
    <path d="M812 233C842 190 838 112 894 84s80 58 126 34 35-70 92-76" stroke="#5cc8ff" stroke-opacity=".36" stroke-width="2"/>
    <path d="M760 216c74-3 86-70 145-74s83 76 154 48 67-82 119-86" stroke="#63e6be" stroke-opacity=".34" stroke-width="2"/>
    <path d="M789 72c52 39 77 13 119 50s34 98 101 111 108-26 162 17" stroke="#9d8cff" stroke-opacity=".3" stroke-width="2"/>
    <path d="M840 256c15-62 80-63 106-114s-4-88 37-113" stroke="#eef6ff" stroke-opacity=".18"/>
    <path d="M745 114c54 15 71 67 128 67s82-51 136-50 79 32 141 16" stroke="#eef6ff" stroke-opacity=".16"/>
  </g>

  <g fill="#dff7ff">
    <circle cx="894" cy="84" r="4"/>
    <circle cx="905" cy="142" r="5"/>
    <circle cx="946" cy="142" r="4"/>
    <circle cx="1009" cy="233" r="4"/>
    <circle cx="1059" cy="190" r="5"/>
    <circle cx="1120" cy="104" r="4"/>
  </g>

  <rect x="70" y="58" width="72" height="5" rx="2.5" fill="url(#accent)"/>
  <text x="70" y="151" fill="#f4f8fc" font-family="-apple-system,BlinkMacSystemFont,'Segoe UI','Noto Sans SC',sans-serif" font-size="78" font-weight="750" letter-spacing="-3">500L</text>
  <text x="74" y="194" fill="#aab8c6" font-family="ui-monospace,SFMono-Regular,Consolas,monospace" font-size="17" letter-spacing="4">AI · AGENTS · AUTOMATION</text>
  <text x="72" y="241" fill="#d8e2ec" font-family="-apple-system,BlinkMacSystemFont,'Segoe UI','Noto Sans SC',sans-serif" font-size="23">把想法编译成产品。</text>
</svg>
