<svg xmlns="http://www.w3.org/2000/svg" width="1800" height="600" viewBox="0 0 1800 600" role="img" aria-labelledby="title desc">
  <title id="title">500L — Silent Measure</title>
  <desc id="desc">An editorial abstract composition of cobalt glass, pale metal and precise geometry on an obsidian field.</desc>
  <defs>
    <linearGradient id="bg" x1="0" y1="0" x2="1" y2="1">
      <stop offset="0" stop-color="#080a0d"/>
      <stop offset="0.58" stop-color="#0b0e13"/>
      <stop offset="1" stop-color="#11151c"/>
    </linearGradient>
    <radialGradient id="halo" cx="74%" cy="49%" r="39%">
      <stop offset="0" stop-color="#3159ff" stop-opacity="0.16"/>
      <stop offset="0.48" stop-color="#1d2d70" stop-opacity="0.07"/>
      <stop offset="1" stop-color="#080a0d" stop-opacity="0"/>
    </radialGradient>
    <linearGradient id="cobalt" x1="0" y1="0" x2="1" y2="1">
      <stop offset="0" stop-color="#6683ff"/>
      <stop offset="0.42" stop-color="#294bd7"/>
      <stop offset="1" stop-color="#12205d"/>
    </linearGradient>
    <linearGradient id="metal" x1="0" y1="0" x2="1" y2="0">
      <stop offset="0" stop-color="#8d929c"/>
      <stop offset="0.22" stop-color="#f0eee8"/>
      <stop offset="0.61" stop-color="#c8c7c2"/>
      <stop offset="1" stop-color="#5f6671"/>
    </linearGradient>
    <linearGradient id="glass" x1="0" y1="0" x2="1" y2="1">
      <stop offset="0" stop-color="#8ca0bb" stop-opacity="0.22"/>
      <stop offset="0.52" stop-color="#293443" stop-opacity="0.08"/>
      <stop offset="1" stop-color="#9bb1cd" stop-opacity="0.18"/>
    </linearGradient>
    <filter id="shadow" x="-30%" y="-30%" width="160%" height="160%">
      <feGaussianBlur in="SourceAlpha" stdDeviation="22" result="blur"/>
      <feOffset dy="18" result="offset"/>
      <feColorMatrix in="offset" type="matrix" values="0 0 0 0 0  0 0 0 0 0  0 0 0 0 0  0 0 0 .48 0" result="shade"/>
      <feMerge><feMergeNode in="shade"/><feMergeNode in="SourceGraphic"/></feMerge>
    </filter>
    <filter id="grain" x="0" y="0" width="100%" height="100%">
      <feTurbulence type="fractalNoise" baseFrequency="0.72" numOctaves="3" seed="500" result="noise"/>
      <feColorMatrix in="noise" type="saturate" values="0" result="mono"/>
      <feComponentTransfer in="mono"><feFuncA type="table" tableValues="0 0.035"/></feComponentTransfer>
    </filter>
    <mask id="disc-cut">
      <rect width="1800" height="600" fill="#fff"/>
      <path d="M1110 382 L1628 203 L1660 248 L1139 429 Z" fill="#000"/>
    </mask>
  </defs>

  <rect width="1800" height="600" fill="url(#bg)"/>
  <rect width="1800" height="600" fill="url(#halo)"/>
  <rect width="1800" height="600" filter="url(#grain)" opacity="0.42"/>

  <g fill="none" stroke="#8993a1" stroke-opacity="0.28" shape-rendering="crispEdges">
    <path d="M92 116 H522"/>
    <path d="M92 482 H704"/>
    <path d="M1691 116 H1730"/>
    <path d="M1691 482 H1730"/>
  </g>

  <g font-family="Inter, ui-sans-serif, system-ui, -apple-system, BlinkMacSystemFont, 'Segoe UI', sans-serif">
    <text x="92" y="98" fill="#8e98a6" font-size="14" font-weight="600" letter-spacing="5.4">INDEPENDENT SYSTEMS BUILDER</text>
    <text x="82" y="360" fill="#f0eee8" font-size="154" font-weight="640" letter-spacing="-9">500L</text>
    <text x="94" y="420" fill="#9ca5b2" font-size="17" font-weight="520" letter-spacing="6.1">DISCIPLINE / CLARITY / FORCE</text>
    <text x="94" y="518" fill="#66707e" font-size="12" font-weight="600" letter-spacing="3.8">SILENT MEASURE — 01</text>
  </g>

  <g filter="url(#shadow)">
    <circle cx="1385" cy="300" r="190" fill="url(#cobalt)" mask="url(#disc-cut)" opacity="0.94"/>
    <circle cx="1385" cy="300" r="190" fill="none" stroke="#91a5ff" stroke-opacity="0.34"/>

    <g transform="rotate(-8 1385 300)">
      <path d="M1134 145 L1668 207 L1609 448 L1080 386 Z" fill="url(#glass)" stroke="#c7d3e3" stroke-opacity="0.34"/>
      <path d="M1162 169 L1650 226" stroke="#f4f6fa" stroke-opacity="0.32"/>
      <path d="M1098 367 L1592 425" stroke="#637084" stroke-opacity="0.42"/>
      <path d="M1120 383 L1642 207 L1664 247 L1142 425 Z" fill="url(#metal)"/>
      <path d="M1142 425 L1664 247" stroke="#ffffff" stroke-opacity="0.52"/>
      <path d="M1210 406 L1260 389 L1248 153 L1198 147 Z" fill="#171b22" stroke="#6f7c8c" stroke-opacity="0.5"/>
      <path d="M1552 279 L1589 267 L1572 456 L1535 451 Z" fill="#090b0f" stroke="#748195" stroke-opacity="0.46"/>
    </g>

    <rect x="1654" y="141" width="17" height="17" fill="#ff5138"/>
    <path d="M1671 149 H1729" stroke="#ff5138" stroke-opacity="0.58"/>
  </g>

  <g fill="#7d8794">
    <rect x="910" y="476" width="1" height="12"/>
    <rect x="946" y="478" width="1" height="8"/>
    <rect x="982" y="476" width="1" height="12"/>
    <rect x="1018" y="478" width="1" height="8"/>
    <rect x="1054" y="476" width="1" height="12"/>
  </g>
</svg>
